Coordinates
version=1
nRows=5
nColumns=40
inDegrees=yes

Units are S.I. units (second, meters, Newtons, ...)
Angles are in degrees.

endheader
time	pelvis_tilt	pelvis_list	pelvis_rotation	pelvis_tx	pelvis_ty	pelvis_tz	hip_flexion_r	hip_adduction_r	hip_rotation_r	knee_angle_r	knee_angle_r_beta	ankle_angle_r	subtalar_angle_r	mtp_angle_r	hip_flexion_l	hip_adduction_l	hip_rotation_l	knee_angle_l	knee_angle_l_beta	ankle_angle_l	subtalar_angle_l	mtp_angle_l	lumbar_extension	lumbar_bending	lumbar_rotation	arm_flex_r	arm_add_r	arm_rot_r	elbow_flex_r	pro_sup_r	wrist_flex_r	wrist_dev_r	arm_flex_l	arm_add_l	arm_rot_l	elbow_flex_l	pro_sup_l	wrist_flex_l	wrist_dev_l
      0.00000000	      0.67834193	     -2.84201661	     -2.27508483	     -1.32185311	      0.88713854	     -1.42997568	     -7.32599496	      4.28741564	    -11.73034430	    -20.73965772	     -0.36197531	     14.63569428	      6.17745735	     -5.13340527	     23.51486149	      4.49623455	     14.86756146	    -13.69030846	     -0.23894096	     -0.28567357	     -4.06702242	     -4.16639775	     -9.37110508	      4.41556010	      5.17856190	     17.78167465	    -10.36584992	     18.13402928	     24.32414072	     89.95437384	      0.00000000	      0.00000000	     -2.67733540	      6.81167613	    -11.99922301	     19.23149943	     89.95437384	      0.00000000	      0.00000000
      0.01000000	      0.50880712	     -2.91113354	     -2.65980904	     -1.31386198	      0.88625125	     -1.43069424	     -7.51677009	      4.18407708	    -11.37119960	    -21.07901028	     -0.36789813	     14.58714513	      6.14694915	     -5.21187796	     23.48433266	      4.56100124	     14.67367453	    -13.57062593	     -0.23685210	     -0.26957636	     -4.10576215	     -4.27453589	     -9.19837348	      4.45153661	      5.23829414	     17.69127019	    -10.17700045	     18.12412162	     24.12700420	     89.95437384	      0.00000000	      0.00000000	     -2.75546166	      6.64555944	    -12.01427799	     18.85833914	     89.95437384	      0.00000000	      0.00000000
      0.02000000	      0.30077596	     -2.87859471	     -2.96882729	     -1.30565130	      0.88528359	     -1.43150225	     -7.61536536	      3.95191492	    -11.16735697	    -21.53688948	     -0.37588963	     14.26812329	      5.94985015	     -5.13364030	     23.58052519	      4.52822403	     14.33524655	    -13.94488831	     -0.24338421	     -0.41496016	     -4.00056796	     -4.21012035	     -8.97684312	      4.36520799	      5.16806593	     17.37570544	    -10.05925539	     18.08091352	     24.36472705	     89.95437384	      0.00000000	      0.00000000	     -3.05952864	      6.63254909	    -11.97690127	     18.98608679	     89.95437384	      0.00000000	      0.00000000
      0.03000000	      0.40236297	     -2.58661035	     -3.76552454	     -1.29699537	      0.88502372	     -1.43206988	     -7.99505374	      3.34413629	    -10.29192822	    -22.10359709	     -0.38578055	     14.31135899	      5.79548138	     -5.63335054	     22.83217204	      4.28932287	     14.65091857	    -13.77732540	     -0.24045969	     -1.88494254	     -3.54978605	     -4.87571709	     -9.03070826	      3.98197808	      5.64777087	     17.25363204	     -9.85318649	     17.94197077	     23.88265388	     89.95437384	      0.00000000	      0.00000000	     -2.96864097	      6.41443976	    -12.06946746	     18.30745529	     89.95437384	      0.00000000	      0.00000000
      0.04000000	      0.33106292	     -2.51610523	     -4.10521726	     -1.28842893	      0.88444641	     -1.43288543	     -8.23001959	      3.06966572	     -9.94600117	    -22.56133740	     -0.39376962	     13.99912842	      5.63837648	     -5.62407111	     22.73701841	      4.20036261	     14.55158984	    -14.56100073	     -0.25413741	     -3.69072459	     -2.77712570	     -4.63663544	     -8.91504244	      3.83612032	      5.63107165	     17.03471491	     -9.66965667	     17.96782465	     23.60089596	     89.95437384	      0.00000000	      0.00000000	     -3.05283882	      6.36730473	    -12.17417608	     18.06658860	     89.95437384	      0.00000000	      0.00000000
